<svg width="40" height="40" viewBox="0 0 40 40" fill="none" xmlns="http://www.w3.org/2000/svg">
<g id="service_window_with_code" clip-path="url(#clip0_11_2251)">
<g id="service_window_with_code_2">
<path id="Subtract" fill-rule="evenodd" clip-rule="evenodd" d="M3 13.7509V29.7498C3 31.959 4.79086 33.7498 7 33.7498H33C35.2091 33.7498 37 31.959 37 29.7498V13.7509H3Z" fill="#A0C4FB"/>
<path id="Rectangle 24" d="M3 10.2502C3 8.04101 4.79086 6.25015 7 6.25015H33C35.2091 6.25015 36.9999 8.04097 37 10.2501L37 12.2502H3L3 10.2502Z" fill="#4189F6"/>
<g id="Vector">
<path fill-rule="evenodd" clip-rule="evenodd" d="M13.9205 27.3637C13.5328 27.7571 12.9043 27.7571 12.5167 27.3637L9.47394 24.2758C8.9894 23.7841 8.9894 22.9868 9.47394 22.4951L12.4971 19.4271C12.8847 19.0337 13.5132 19.0337 13.9008 19.4271C14.2885 19.8205 14.2885 20.4583 13.9008 20.8517L11.4041 23.3854L13.9205 25.9391C14.3081 26.3325 14.3081 26.9703 13.9205 27.3637Z" fill="#0D51B7"/>
<path fill-rule="evenodd" clip-rule="evenodd" d="M26.0799 27.3637C26.4675 27.7571 27.096 27.7571 27.4837 27.3637L30.5264 24.2758C31.011 23.7841 31.011 22.9868 30.5264 22.4951L27.5033 19.4271C27.1157 19.0337 26.4872 19.0337 26.0995 19.4271C25.7119 19.8205 25.7119 20.4583 26.0995 20.8517L28.5962 23.3854L26.0799 25.9391C25.6923 26.3325 25.6923 26.9703 26.0799 27.3637Z" fill="#0D51B7"/>
<path fill-rule="evenodd" clip-rule="evenodd" d="M17.5993 27.8898C17.1228 27.6106 16.9579 26.9951 17.231 26.5151L21.3622 19.2535C21.6353 18.7734 22.2429 18.6106 22.7195 18.8898C23.196 19.169 23.3609 19.7845 23.0878 20.2645L18.9566 27.5262C18.6835 28.0062 18.0758 28.169 17.5993 27.8898Z" fill="#0D51B7"/>
</g>
<path id="Ellipse 97" d="M7.0025 9.25015C7.0025 9.80244 6.55479 10.2502 6.0025 10.2502C5.45022 10.2502 5.0025 9.80244 5.0025 9.25015C5.0025 8.69787 5.45022 8.25015 6.0025 8.25015C6.55479 8.25015 7.0025 8.69787 7.0025 9.25015Z" fill="white"/>
<path id="Ellipse 98" d="M10.0025 9.25015C10.0025 9.80244 9.55479 10.2502 9.0025 10.2502C8.45022 10.2502 8.0025 9.80244 8.0025 9.25015C8.0025 8.69787 8.45022 8.25015 9.0025 8.25015C9.55479 8.25015 10.0025 8.69787 10.0025 9.25015Z" fill="white"/>
<path id="Ellipse 99" d="M13.0025 9.25015C13.0025 9.80244 12.5548 10.2502 12.0025 10.2502C11.4502 10.2502 11.0025 9.80244 11.0025 9.25015C11.0025 8.69787 11.4502 8.25015 12.0025 8.25015C12.5548 8.25015 13.0025 8.69787 13.0025 9.25015Z" fill="white"/>
</g>
</g>
<defs>
<clipPath id="clip0_11_2251">
<rect width="40" height="40" fill="white"/>
</clipPath>
</defs>
</svg>
