<svg width="40" height="40" viewBox="0 0 40 40" fill="none" xmlns="http://www.w3.org/2000/svg">
<g id="service_graduation_cap">
<g id="service_graduation_cap_2">
<path id="Vector" d="M8.42145 21.7712V28.0737C8.42145 33.3246 13.6027 36.842 20.0005 36.842C26.3982 36.842 31.5795 33.3246 31.5795 28.0737L31.5795 21.375L20.0005 28.0737L8.42145 21.7712Z" fill="#8F9AAB"/>
<path id="Vector (Stroke)" fill-rule="evenodd" clip-rule="evenodd" d="M34.04 24.0529L34.04 14.3656L36.04 14.3656L36.04 24.0529H34.04Z" fill="#6A7685"/>
<path id="Vector_2" d="M35.0401 26.3608C36.3146 26.3608 37.3478 25.3276 37.3478 24.0531C37.3478 22.7786 36.3146 21.7454 35.0401 21.7454C33.7656 21.7454 32.7324 22.7786 32.7324 24.0531C32.7324 25.3276 33.7656 26.3608 35.0401 26.3608Z" fill="#6A7685"/>
<path id="Subtract" fill-rule="evenodd" clip-rule="evenodd" d="M8.42145 20.4052V23.7405C8.42145 29.1296 13.6027 32.7396 20.0004 32.7396C26.3981 32.7396 31.5793 29.1296 31.5793 23.7405V20.4047L21.9347 25.7346C20.7307 26.4 19.2692 26.4 18.0652 25.7346L8.42145 20.4052Z" fill="#6A7685"/>
<path id="Vector 124" d="M3.16752 12.4602L18.0652 4.22724C19.2693 3.56187 20.7307 3.56187 21.9347 4.22724L36.8324 12.4602C38.2093 13.2211 38.2093 15.2003 36.8324 15.9612L21.9347 24.1941C20.7307 24.8595 19.2692 24.8595 18.0652 24.1941L3.16752 15.9612C1.79068 15.2003 1.79068 13.2211 3.16752 12.4602Z" fill="#C7CED6"/>
</g>
</g>
</svg>
