<svg width="40" height="40" viewBox="0 0 40 40" fill="none" xmlns="http://www.w3.org/2000/svg">
<g id="service_business_suit_case">
<g id="service_business_suit_case_2">
<path id="Vector (Stroke)" fill-rule="evenodd" clip-rule="evenodd" d="M14.9278 7.73635L14.9278 9.95158L11.9278 9.9516L11.9278 7.30422L11.9575 7.15718C12.166 6.12519 12.9013 5.40428 13.6509 4.97739C14.418 4.54047 15.3529 4.31213 16.3107 4.31213H23.6899C24.6477 4.31213 25.5826 4.54047 26.3498 4.97739C27.0993 5.40428 27.8347 6.12519 28.0431 7.15718L28.0728 7.30421V9.95159H25.0728V7.73635C25.0379 7.70013 24.9748 7.64674 24.8651 7.58426C24.6031 7.43503 24.1914 7.31213 23.6899 7.31213H16.3107C15.8093 7.31213 15.3976 7.43503 15.1356 7.58425C15.0258 7.64674 14.9628 7.70012 14.9278 7.73635Z" fill="#5400CB"/>
<path id="Subtract" fill-rule="evenodd" clip-rule="evenodd" d="M20 25.9525L36.5 25.952L36.5 17.63H36.5001V30.1878C36.5001 32.397 34.7093 34.1878 32.5001 34.1878H7.50012C5.29098 34.1878 3.50012 32.397 3.50012 30.1878V25.952L20 25.9525Z" fill="#812AFE"/>
<path id="Rectangle 750" d="M36.4999 24.3913L19.9999 24.3917L3.49989 24.3913L3.49988 13.9542C3.49988 11.7451 5.29075 9.95424 7.49988 9.95424L32.4999 9.95424C34.709 9.95424 36.4999 11.7451 36.4999 13.9542L36.4999 24.3913Z" fill="#DFC8FF"/>
<path id="Rectangle 748" d="M21 22.4354C21.5523 22.4354 22 22.8831 22 23.4354L22 27.4354C22 27.9877 21.5523 28.4354 21 28.4354L19 28.4354C18.4477 28.4354 18 27.9877 18 27.4354L18 23.4354C18 22.8831 18.4477 22.4354 19 22.4354L21 22.4354Z" fill="#5400CB"/>
</g>
</g>
</svg>
