<svg width="40" height="40" viewBox="0 0 40 40" fill="none" xmlns="http://www.w3.org/2000/svg">
<g id="service_event_calendar">
<g id="service_event_calendar_2">
<path id="Subtract" d="M4 15.52L36 15.52V29.9805C36 32.1896 34.2091 33.9805 32 33.9805H8C5.79086 33.9805 4 32.1896 4 29.9805V15.52Z" fill="#FFC690"/>
<path id="Rectangle 746" d="M36 14.0195L4 14.0195L4 10.0195C4 7.81039 5.79086 6.01953 8 6.01953L32 6.01953C34.2091 6.01953 36 7.81039 36 10.0195V14.0195Z" fill="#FF810D"/>
<path id="Ellipse 3" d="M14.5332 10.0195C14.5332 11.1241 13.6378 12.0195 12.5332 12.0195C11.4286 12.0195 10.5332 11.1241 10.5332 10.0195C10.5332 8.91496 11.4286 8.01953 12.5332 8.01953C13.6378 8.01953 14.5332 8.91496 14.5332 10.0195Z" fill="white"/>
<path id="Ellipse 4" d="M29.4668 10.0195C29.4668 11.1241 28.5714 12.0195 27.4668 12.0195C26.3622 12.0195 25.4668 11.1241 25.4668 10.0195C25.4668 8.91496 26.3622 8.01953 27.4668 8.01953C28.5714 8.01953 29.4668 8.91496 29.4668 10.0195Z" fill="white"/>
<path id="Vector" d="M20.9317 20.8654L21.7043 22.495C21.7356 22.5602 21.7983 22.6036 21.8714 22.6145L23.6046 22.8752C24.4608 23.0056 24.8053 24.1028 24.1789 24.7329L22.9259 26.0039C22.9259 26.0039 22.8528 26.1343 22.8633 26.1994L23.1556 27.9919C23.3018 28.8827 22.4039 29.5563 21.6417 29.1326L20.0964 28.2852C20.0337 28.2527 19.9607 28.2527 19.898 28.2852L18.3527 29.1326C17.5905 29.5563 16.6926 28.8719 16.8388 27.9919L17.1311 26.1994C17.1415 26.1234 17.1207 26.0474 17.0685 26.0039L15.8155 24.7329C15.1995 24.1028 15.5336 23.0056 16.3898 22.8752L18.123 22.6145C18.1961 22.6145 18.2587 22.5602 18.2901 22.495L19.0627 20.8654C19.449 20.0615 20.5558 20.0615 20.9317 20.8654Z" fill="#CE6300"/>
</g>
</g>
</svg>
