<svg width="40" height="40" viewBox="0 0 40 40" fill="none" xmlns="http://www.w3.org/2000/svg">
<g id="service_living_home" clip-path="url(#clip0_11_2192)">
<g id="service_living_home_2">
<path id="Subtract" fill-rule="evenodd" clip-rule="evenodd" d="M6.90956 11.8427L15.2994 6.06295C15.9679 5.60247 16.8483 5.59166 17.5279 6.0356L33.7657 16.6435C33.6084 16.3455 33.3761 16.0875 33.0845 15.8985L16.9623 5.45272C16.618 5.22959 16.1722 5.23949 15.8381 5.47769L6.90956 11.8427ZM33.9969 21.5724L16.4636 10.1182L6.00195 17.3252V30.8501C6.00195 33.0593 7.79281 34.8501 10.002 34.8501H29.9969C32.2061 34.8501 33.9969 33.0593 33.9969 30.8501V21.5724Z" fill="#ADE7B9"/>
<path id="Rectangle 795" d="M22.3623 25.8506C22.3623 25.2983 22.81 24.8506 23.3623 24.8506H28.3623C28.9146 24.8506 29.3623 25.2983 29.3623 25.8506V34.8506H22.3623V25.8506Z" fill="#229D3D"/>
<rect id="Rectangle 796" x="11.1006" y="17.8506" width="5" height="7" rx="1" fill="#229D3D"/>
<path id="Line 98 (Stroke)" fill-rule="evenodd" clip-rule="evenodd" d="M15.2994 4.06295C15.9679 3.60246 16.8484 3.59166 17.5279 4.03559L36.2662 16.277C37.1909 16.8811 37.4508 18.1205 36.8467 19.0452C36.2426 19.9699 35.0033 20.2298 34.0785 19.6257L16.4636 8.11823L5.96274 15.3522C5.05312 15.9788 3.80774 15.7494 3.18111 14.8398C2.55448 13.9302 2.78389 12.6848 3.69352 12.0581L15.2994 4.06295Z" fill="#5ACE74"/>
</g>
</g>
<defs>
<clipPath id="clip0_11_2192">
<rect width="40" height="40" fill="white"/>
</clipPath>
</defs>
</svg>
